<?xml version="1.0" encoding="UTF-8" standalone="no"?>
<svg
   xmlns:dc="http://purl.org/dc/elements/1.1/"
   xmlns:cc="http://creativecommons.org/ns#"
   xmlns:rdf="http://www.w3.org/1999/02/22-rdf-syntax-ns#"
   xmlns:svg="http://www.w3.org/2000/svg"
   xmlns="http://www.w3.org/2000/svg"
   viewBox="0 0 6430.4131 5108"
   height="5108"
   width="6430.4131"
   xml:space="preserve"
   id="svg2"
   version="1.1"><metadata
     id="metadata8"><rdf:RDF><cc:Work
         rdf:about=""><dc:format>image/svg+xml</dc:format><dc:type
           rdf:resource="http://purl.org/dc/dcmitype/StillImage" /><dc:title></dc:title></cc:Work></rdf:RDF></metadata><defs
     id="defs6" /><g
     style="display:none"
     transform="matrix(1.3333333,0,0,-1.3333333,0,5108)"
     id="g10" /><g
     id="layer1"><path
       id="path16"
       style="fill:#000000;fill-opacity:1;fill-rule:nonzero;stroke:none;stroke-width:0.39450267"
       d="m 6050.0133,1103.9933 c -170.7408,63.8738 -548.3587,67.3968 -722.6105,51.0486 0,0 117.2461,-163.00854 322.3481,-251.53493 221.2765,-95.50907 424.9188,-121.5068 514.313,-22.8812 48.0506,52.98173 45.644,163.56083 -114.0506,223.36753 z m -123.8739,575.2756 c -386.5732,100.3575 -841.0402,21.8002 -841.0402,21.8002 140.009,-189.602 220.4481,-448.1984 220.4481,-448.1984 385.1924,46.1883 682.8841,-41.2729 755.5909,74.632 47.1036,75.2316 28.8776,309.2308 -134.9988,351.7662 z m 6.0359,499.5705 c -395.1733,194.8685 -1440.5658,-35.813 -1440.5658,-35.813 299.4274,-142.7586 532.2629,-350.1053 532.2629,-350.1053 0,0 217.8049,57.4791 495.2981,47.5889 183.286,-6.4541 352.3304,-73.843 462.4755,17.7328 84.1869,70.0519 55.0725,269.1062 -49.4707,320.5966 z m -155.1579,429.8028 c -82.4905,64.9312 -279.6629,95.2369 -449.6146,96.6926 -315.1288,2.7339 -642.8421,-73.5629 -908.8157,-76.2929 -664.1375,-6.7065 -969.8455,76.36 -969.8455,76.36 343.7855,-221.4423 926.3712,-475.7072 926.3712,-475.7072 0,0 713.6553,148.6644 1311.4452,148.0648 198.0404,-0.2644 210.7433,136.1744 90.4594,230.8827 z m -366.7296,552.1459 c 245.854,201.437 316.8251,524.6924 316.8251,524.6924 -383.4961,-327.9066 -1048.4302,-463.8798 -1048.4302,-463.8798 0,0 130.7381,-21.1494 188.0987,-117.3724 46.3147,-77.7605 -1.3413,-181.2424 -1.3413,-181.2424 104.7011,22.6009 312.0911,47.1193 544.8477,237.8022 z m 243.9604,842.6379 c -81.2676,11.2946 -242.5797,-30.5069 -393.0825,-94.507 -164.8232,-70.1189 -389.2163,-164.3617 -404.878,-277.5326 -27.8519,-200.4389 -239.3053,-342.8663 -239.3053,-342.8663 143.4807,2.521 726.6344,188.0122 1029.4941,456.5067 103.0047,91.2524 111.6048,244.0393 7.7717,258.3992 z m -109.001,423.613 c -319.5078,54.828 -831.8484,-572.2931 -831.8484,-572.2931 99.6909,-25.1851 130.7777,-96.3612 130.7777,-96.3612 0,0 78.2299,89.2562 390.3209,222.4403 152.7908,65.1994 291.577,99.4265 383.8511,150.3331 97.2449,53.6287 75.2711,270.3606 -73.1013,295.8809 z m -396.3963,344.7192 c -281.596,-49.7069 -516.7196,-668.3849 -846.2477,-981.0796 3.7084,1.4005 121.2307,46.6539 217.9233,65.665 59.2938,11.5629 111.6048,-1.5977 111.6048,-1.5977 258.8332,319.8114 606.1533,620.9314 711.4855,686.1979 97.166,60.1498 24.2225,269.4946 -194.7659,230.8144 z m -373.3573,117.1598 c -253.2313,-133.5727 -431.8227,-402.1315 -431.8227,-402.1315 242.343,71.906 261.5947,-185.0928 261.5947,-185.0928 0,0 172.9895,293.3443 389.2558,497.318 59.4122,56.0797 -68.5252,169.3331 -219.0278,89.9063 z m -849.3129,-516.92 c 83.5437,92.5188 197.3972,78.0287 267.1848,20.0802 181.7473,316.8133 458.1753,529.7469 458.1753,529.7469 -284.2785,-50.5737 -467.8801,-104.8135 -725.3601,-549.8271 z m -423.546,-931.4917 c 144.1592,79.295 357.7626,403.7458 453.9897,580.1319 111.9993,205.2282 177.3289,262.3087 120.7572,294.0149 -96.298,53.9601 -207.2243,-88.5895 -322.932,-412.1882 -118.0272,-330.037 -247.6924,-457.9702 -251.8149,-461.9586 z m -53.8931,-210.4002 c 511.9461,360.3348 983.5347,736.7614 1061.4884,995.0935 33.4932,111.2537 -59.8856,215.1855 -166.5591,177.4395 -220.2508,-78.013 -340.1796,-695.4924 -894.9293,-1116.1862 z m -78.2929,-307.1202 c 0,0 370.1854,170.3461 888.562,291.7622 273.5481,64.0634 519.2444,268.6919 519.2444,470.7324 0,137.0384 -286.6456,114.2401 -556.7222,-21.2676 -202.8138,-101.679 -814.9241,-558.1857 -814.9241,-558.1857 0,0 -15.1608,-76.2416 -36.1601,-183.0413 z m 1381.6114,0 c 107.8964,97.6393 28.7198,271.5597 -348.1881,228.3617 -571.4647,-65.6018 -1051.3693,-307.9053 -1051.3693,-307.9053 303.7197,-86.8695 1210.4328,-91.856 1399.5574,79.5436 z M 3323.4634,2561.3887 c -17.5475,127.4637 -53.6287,183.9565 -63.799,203.9579 0,0 -43.6674,10.04 -88.9209,0 0,0 -48.9853,-59.9447 -63.7319,-203.9579 -18.6836,-182.5601 41.265,-275.7496 108.1963,-275.7496 71.2433,0 133.3064,93.3868 108.2555,275.7496 z m -13.5591,831.0118 c -23.5201,267.824 -68.0556,426.3983 -94.6964,510.6641 -26.6525,-84.2658 -71.1169,-242.9071 -94.7043,-510.6641 -28.6528,-326.7191 28.9052,-501.4403 50.307,-557.9331 45.1864,6.521 78.4942,2.3314 88.7868,0 21.4649,56.694 78.9597,231.3481 50.3069,557.9331 z M 3106.8775,2167.1463 c -7.2391,-18.9992 -2.9864,-92.7041 52.6385,-112.9737 13.2119,24.5894 -4.8524,106.4013 -52.6385,112.9737 z m 107.5336,-123.8107 c 8.3043,98.4244 36.5467,142.6246 80.8099,165.8135 -22.2658,18.6125 -102.9455,30.4397 -161.5567,0 81.5436,-44.9221 79.5435,-156.6413 80.7468,-165.8135 z m 54.8911,10.837 c 55.6958,20.2696 59.9485,93.9745 52.7054,112.9737 -47.8492,-6.5724 -65.8661,-88.3843 -52.7054,-112.9737 z m 996.5729,-505.9575 c 590.4126,-532.7482 1077.7417,-611.7672 1077.7417,-611.7672 -96.1403,268.7038 -232.9932,608.047 -415.4112,775.261 -625.918,573.9973 -1173.756,619.3335 -1521.5968,921.5187 0,0 443.5472,-709.9194 859.2663,-1085.0125 z M 5246.4113,386.11671 c 192.3201,-103.63586 416.7527,-23.47293 338.01,241.15946 -33.4933,112.59107 -217.016,173.18666 -542.9935,305.58173 -830.3886,337.0908 -1293.2862,1052.328 -1302.7938,1067.1416 9.8429,-18.9321 582.6687,-1115.192 1507.7773,-1613.88279 z m 867.1564,-110.46066 c 57.6762,122.69026 -438.5687,160.83866 -438.5687,160.83866 -18.8572,-128.72626 -173.3444,-169.6756 -173.3444,-169.6756 252.9551,-92.31359 540.587,-142.69159 611.9131,8.83694 z m -28.3253,419.75079 c -94.4834,30.49506 -547.6092,128.33173 -547.6092,128.33173 0,0 170.3068,-117.36453 155.158,-298.59906 0,0 305.7789,-39.60813 425.55,-79.808 130.5803,-43.78973 154.5266,189.5192 -33.0988,250.07533 z M 2026.5162,3151.3476 c -376.892,43.198 -456.0529,-130.7224 -348.1841,-228.3617 189.1442,-171.3996 1095.8495,-166.4131 1399.5691,-79.5436 0,0 -479.9045,242.3035 -1051.385,307.9053 z m 997.279,-45.3204 c 0,0 -612.0788,456.5067 -814.9162,558.1857 -270.0963,135.5077 -556.734,158.306 -556.734,21.2676 0,-202.0405 245.7081,-406.669 519.2522,-470.7324 518.3727,-121.4161 888.5582,-291.7622 888.5582,-291.7622 -20.9994,106.7997 -36.1602,183.0413 -36.1602,183.0413 z m -42.1329,180.4257 c -554.7339,420.6938 -674.6903,1038.1732 -894.9332,1116.1862 -106.6774,37.746 -200.0522,-66.1858 -166.5432,-177.4395 77.9459,-258.3321 549.5461,-634.7587 1061.4764,-995.0935 z m -305.704,616.012 c -115.7076,323.5987 -226.63,466.1483 -322.936,412.1882 -56.5597,-31.7062 8.7737,-88.7867 120.7613,-294.0149 96.2271,-176.3861 309.8384,-500.8369 453.9858,-580.1319 -4.1187,3.9884 -133.7878,131.9216 -251.8111,461.9586 z m -897.0674,1019.3602 c 0,0 276.4004,-212.9336 458.1595,-529.7469 69.7875,57.9485 183.6252,72.4386 267.173,-20.0802 -257.4682,445.0136 -441.0935,499.2534 -725.3325,549.8271 z m -343.0004,-122.8134 c 216.2545,-203.9737 389.2557,-497.318 389.2557,-497.318 0,0 19.2636,256.9988 261.5829,185.0928 0,0 -178.5834,268.5588 -431.7832,402.1315 -150.5342,79.4268 -278.4676,-33.8266 -219.0554,-89.9063 z m -349.1112,-258.0679 c 105.3362,-65.2665 452.6602,-366.3865 711.5132,-686.1979 0,0 52.3032,13.1606 111.585,1.5977 96.6927,-19.0111 214.1992,-64.2645 217.9194,-65.665 -329.5044,312.6947 -564.6399,931.3727 -846.228,981.0796 -218.9844,38.6802 -291.95571,-170.6646 -194.7896,-230.8144 z M 885.14109,4427.039 c -148.337,-25.5203 -170.3345,-242.2522 -73.1053,-295.8809 92.3096,-50.9066 231.07991,-85.1337 383.86691,-150.3331 312.095,-133.1841 390.321,-222.4403 390.321,-222.4403 0,0 31.0946,71.1761 130.7894,96.3612 0,0 -512.3367,627.1211 -831.87201,572.2931 z m -101.2176,-682.0122 c 302.85581,-268.4945 886.03341,-453.9857 1029.51391,-456.5067 0,0 -211.4652,142.4274 -239.3211,342.8663 -15.6776,113.1709 -240.039,207.4137 -404.8623,277.5326 -150.5303,64.0001 -311.82671,105.8016 -393.10611,94.507 -103.8095,-14.3599 -95.2369,-167.1468 7.7756,-258.3992 z m 236.19671,-584.2387 c 232.7408,-190.6829 440.1584,-215.2013 544.8357,-237.8022 0,0 -47.652,103.4819 -1.3333,181.2424 57.3488,96.223 188.0831,117.3724 188.0831,117.3724 0,0 -664.9264,135.9732 -1048.39881,463.8798 0,0 70.9789,-323.2554 316.81331,-524.6924 z m 82.8732,-455.4533 c -169.93601,-1.4557 -367.12031,-31.7614 -449.59501,-96.6926 -120.2918,-94.7083 -107.6006,-231.1471 90.4515,-230.8827 597.80181,0.5996 1311.44141,-148.0648 1311.44141,-148.0648 0,0 582.5857,254.2649 926.371,475.7072 0,0 -305.704,-83.0665 -969.8374,-76.36 -265.9736,2.73 -593.6791,79.0268 -908.8315,76.2929 z m -654.22361,-847.092 c 110.1215,-91.5758 279.1935,-24.1869 462.4873,-17.7328 277.46961,9.8902 495.26271,-47.5889 495.26271,-47.5889 0,0 232.8631,207.3467 532.2629,350.1053 0,0 -1045.40051,230.6815 -1440.56591,35.813 -104.5432,-51.4904 -133.652,-250.5447 -49.447,-320.5966 z m -79.4867,-530.7401 c 72.7052,-115.9049 370.3772,-28.4437 755.57751,-74.632 0,0 80.4155,258.5964 220.4441,448.1984 0,0 -454.44731,78.5573 -841.04411,-21.8002 -163.8871,-42.5354 -182.0973,-276.5346 -134.9775,-351.7662 z M 266.33759,880.62577 c 89.388,-98.6256 293.0192,-72.62787 514.3273,22.8812 205.0941,88.52639 322.32851,251.53493 322.32851,251.53493 -174.25591,16.3482 -551.87771,12.8252 -722.61141,-51.0486 C 220.68023,1044.1866 218.28718,933.6075 266.33759,880.62577 Z m 45.7241,-435.29426 c 119.7603,40.19987 425.5393,79.808 425.5393,79.808 -15.1528,181.23453 155.1816,298.59906 155.1816,298.59906 0,0 -453.1179,-97.83667 -547.6238,-128.33173 C 157.54442,634.85071 181.47021,401.54178 312.06169,445.33151 Z m 4.7853,-169.67546 c 71.311,-151.52853 358.9473,-101.15053 611.8905,-8.83694 0,0 -154.4517,40.94934 -173.3247,169.6756 0,0 -496.25238,-38.1484 -438.5658,-160.83866 z M 1184.0084,386.11671 C 2109.1171,884.8075 2681.9311,1981.0674 2691.7699,1999.9995 2682.2624,1985.1859 2219.3846,1269.9487 1388.9723,932.8579 1062.9829,800.46283 879.49179,739.86724 845.99459,627.27617 767.23999,362.64378 991.67259,282.48085 1184.0084,386.11671 Z M 3023.7952,2633.2276 c -347.8369,-302.1852 -895.663,-347.5214 -1521.5849,-921.5187 -182.4259,-167.214 -319.267,-506.5572 -415.431,-775.261 0,0 487.337,79.019 1077.7654,611.7672 415.7033,375.0931 859.2505,1085.0125 859.2505,1085.0125 z M 6198.149,61.717253 C 5854.3005,-99.634341 5202.6216,10.155659 4343.6709,941.57643 3944.7301,1374.1605 3676.3697,2092.4551 3365.7975,2364.8671 c -15.1489,-45.1863 -36.4127,-78.4271 -55.0292,-101.1465 29.3076,-16.8808 58.9467,-56.7611 66.6671,-80.0919 11.626,-35.3475 14.0126,-87.4533 -20.814,-133.7759 -22.25,-29.639 -54.2915,-41.0796 -77.4764,-46.0661 19.4648,-45.786 73.9574,-141.6777 224.9573,-296.4648 139.6262,-143.161 207.745,-267.1058 240.6544,-356.5593 33.0909,-90.3845 -26.7196,-99.8211 -51.5734,-36.7519 -39.8132,101.0163 -49.9873,190.738 -248.6943,402.8188 -109.2655,116.5597 -172.1334,212.9999 -201.3068,283.4383 h -55.8932 c -29.1735,-70.4384 -92.0415,-166.8786 -201.3068,-283.4383 -198.7071,-212.0808 -208.9444,-301.8025 -248.6906,-402.8188 -24.8537,-63.0692 -84.7352,-53.6326 -51.5733,36.7519 32.8384,89.4535 101.0243,213.3983 240.5835,356.5593 150.9998,154.7871 205.5596,250.7459 225.0282,296.4648 -23.252,4.9865 -54.0941,17.3463 -77.5473,46.0661 -45.8649,56.4139 -31.9745,122.4812 -6.9196,160.1602 18.2141,27.5205 42.3341,45.9201 52.7727,53.7076 -18.6127,22.7194 -39.8803,55.9602 -55.0254,101.1465 C 2754.0383,2092.4551 2485.6778,1374.1605 2086.7291,941.57643 1227.8061,10.155659 576.10349,-99.634341 232.24429,61.717253 -311.45927,316.92098 280.02839,1155.7126 205.66073,1837.3736 c -54.89624,502.707 33.16228,1150.8116 1124.55827,1015.8404 -39.4779,6.4384 -864.37111,152.2544 -809.27491,1147.5452 42.1999,762.3594 631.09781,1124.3591 1118.43881,1106.6122 1088.7326,-39.6668 1022.4127,-1325.0641 1416.3197,-1715.1721 0.2012,2.1186 0.3353,4.1858 0.5326,6.3752 8.107,92.2506 18.8691,184.292 33.9627,275.6786 10.2927,62.3984 22.5853,124.5326 38.5469,185.7476 9.5706,36.8899 20.3998,73.5707 33.8247,109.2653 5.8385,15.4803 11.8941,31.3591 19.9341,45.9872 6.7855,12.2257 18.2814,21.0665 32.7043,21.0665 12.2296,0 24.1199,-6.2529 30.7633,-17.6146 3.5308,-6.0517 87.197,-153.6509 128.1976,-620.1306 0.2012,-2.1894 0.3354,-4.2566 0.5326,-6.3752 393.907,390.108 327.5871,1675.5053 1416.3355,1715.1721 487.3292,17.7469 1076.2428,-344.2528 1118.4151,-1106.6122 C 5964.564,3005.4684 5139.6589,2859.6524 5100.2086,2853.214 6191.5609,2988.1852 6279.6533,2340.0806 6224.7385,1837.3736 6150.3747,1155.7126 6741.8921,316.92098 6198.149,61.717253" /></g></svg>