<?xml version="1.0" encoding="UTF-8" standalone="no"?>
<svg
   xmlns:dc="http://purl.org/dc/elements/1.1/"
   xmlns:cc="http://creativecommons.org/ns#"
   xmlns:rdf="http://www.w3.org/1999/02/22-rdf-syntax-ns#"
   xmlns:svg="http://www.w3.org/2000/svg"
   xmlns="http://www.w3.org/2000/svg"
   viewBox="0 0 6430.4131 5108"
   height="5108"
   width="6430.4131"
   xml:space="preserve"
   id="svg2"
   version="1.1"><metadata
     id="metadata8"><rdf:RDF><cc:Work
         rdf:about=""><dc:format>image/svg+xml</dc:format><dc:type
           rdf:resource="http://purl.org/dc/dcmitype/StillImage" /></cc:Work></rdf:RDF></metadata><defs
     id="defs6" /><g
     transform="matrix(1.3333333,0,0,-1.3333333,0,5108)"
     id="g10"><g
       transform="scale(0.1)"
       id="g12"><g
         transform="scale(2.95877)"
         id="g14"><path
           id="path16"
           style="fill:#000000;fill-opacity:1;fill-rule:nonzero;stroke:none"
           d="m 15335.8,10149.5 c -432.8,-161.91 -1390,-170.84 -1831.7,-129.4 0,0 297.2,413.2 817.1,637.6 560.9,242.1 1077.1,308 1303.7,58 121.8,-134.3 115.7,-414.6 -289.1,-566.2 z m -314,-1458.23 c -979.9,-254.39 -2131.9,-55.26 -2131.9,-55.26 354.9,480.61 558.8,1136.11 558.8,1136.11 976.4,-117.08 1731,104.62 1915.3,-189.18 119.4,-190.7 73.2,-783.85 -342.2,-891.67 z m 15.3,-1266.33 c -1001.7,-493.96 -3651.6,90.78 -3651.6,90.78 759,361.87 1349.2,887.46 1349.2,887.46 0,0 552.1,-145.7 1255.5,-120.63 464.6,16.36 893.1,187.18 1172.3,-44.95 213.4,-177.57 139.6,-682.14 -125.4,-812.66 z m -393.3,-1089.48 c -209.1,-164.59 -708.9,-241.41 -1139.7,-245.1 -798.8,-6.93 -1629.5,186.47 -2303.7,193.39 -1683.48,17 -2458.4,-193.56 -2458.4,-193.56 871.44,561.32 2348.2,1205.84 2348.2,1205.84 0,0 1809,-376.84 3324.3,-375.32 502,0.67 534.2,-345.18 229.3,-585.25 z m -929.6,-1399.6 c 623.2,-510.61 803.1,-1330.01 803.1,-1330.01 -972.1,831.19 -2657.6,1175.86 -2657.6,1175.86 0,0 331.4,53.61 476.8,297.52 117.4,197.11 -3.4,459.42 -3.4,459.42 265.4,-57.29 791.1,-119.44 1381.1,-602.79 z m 618.4,-2135.95 c -206,-28.63 -614.9,77.33 -996.4,239.56 -417.8,177.74 -986.6,416.63 -1026.3,703.5 -70.6,508.08 -606.6,869.11 -606.6,869.11 363.7,-6.39 1841.9,-476.58 2609.6,-1157.17 261.1,-231.31 282.9,-618.6 19.7,-655 z m -276.3,-1073.79 c -809.9,-138.98 -2108.6,1450.67 -2108.6,1450.67 252.7,63.84 331.5,244.26 331.5,244.26 0,0 198.3,-226.25 989.4,-563.85 387.3,-165.27 739.1,-252.03 973,-381.07 246.5,-135.94 190.8,-685.32 -185.3,-750.01 z M 13051.5,852.313 c -713.8,125.999 -1309.8,1694.247 -2145.1,2486.877 9.4,-3.55 307.3,-118.26 552.4,-166.45 150.3,-29.31 282.9,4.05 282.9,4.05 656.1,-810.67 1536.5,-1573.96 1803.5,-1739.4 246.3,-152.47 61.4,-683.125 -493.7,-585.077 z m -946.4,-296.981 c -641.9,338.585 -1094.6,1019.338 -1094.6,1019.338 614.3,-182.27 663.1,469.18 663.1,469.18 0,0 438.5,-743.58 986.7,-1260.62 150.6,-142.153 -173.7,-429.232 -555.2,-227.898 z M 9952.23,1865.64 c 211.77,-234.52 500.37,-197.79 677.27,-50.9 460.7,-803.07 1161.4,-1342.822 1161.4,-1342.822 -720.6,128.196 -1186,265.685 -1838.67,1393.722 z M 8878.61,4226.82 c 365.42,-201 906.87,-1023.43 1150.79,-1470.54 283.9,-520.22 449.5,-664.91 306.1,-745.28 -244.1,-136.78 -525.28,224.56 -818.58,1044.83 -299.18,836.59 -627.86,1160.88 -638.31,1170.99 z M 8742,4760.15 c 1297.7,-913.39 2493.1,-1867.57 2690.7,-2522.4 84.9,-282.01 -151.8,-545.46 -422.2,-449.78 -558.3,197.75 -862.3,1762.96 -2268.5,2829.35 z m -198.46,778.5 c 0,0 938.36,-431.8 2252.36,-739.57 693.4,-162.39 1316.2,-681.09 1316.2,-1193.23 0,-347.37 -726.6,-289.58 -1411.2,53.91 -514.1,257.74 -2065.7,1414.91 -2065.7,1414.91 0,0 -38.43,193.26 -91.66,463.98 z m 3502.16,0 c 273.5,-247.5 72.8,-688.36 -882.6,-578.86 -1448.57,166.29 -2665.05,780.49 -2665.05,780.49 769.88,220.2 3068.25,232.84 3547.65,-201.63 z m -3621.26,916.59 c -44.48,-323.1 -135.94,-466.3 -161.72,-517 0,0 -110.69,-25.45 -225.4,0 0,0 -124.17,151.95 -161.55,517 -47.36,462.76 104.6,698.98 274.26,698.98 180.59,0 337.91,-236.72 274.41,-698.98 z m -34.37,-2106.48 c -59.62,-678.89 -172.51,-1080.85 -240.04,-1294.45 -67.56,213.6 -180.27,615.73 -240.06,1294.45 -72.63,828.18 73.27,1271.07 127.52,1414.27 114.54,-16.53 198.97,-5.91 225.06,0 54.41,-143.71 200.15,-586.43 127.52,-1414.27 z m -514.64,3105.82 c -18.35,48.16 -7.57,234.99 133.43,286.37 33.49,-62.33 -12.3,-269.71 -133.43,-286.37 z m 272.58,313.84 c 21.05,-249.49 92.64,-361.53 204.84,-420.31 -56.44,-47.18 -260.95,-77.16 -409.52,0 206.7,113.87 201.63,397.06 204.68,420.31 z m 139.14,-27.47 c 141.18,-51.38 151.96,-238.21 133.6,-286.37 -121.29,16.66 -166.96,224.04 -133.6,286.37 z m 2526.15,1282.52 c 1496.6,1350.43 2731.9,1550.73 2731.9,1550.73 -243.7,-681.12 -590.6,-1541.3 -1053,-1965.16 -1586.6,-1454.99 -2975.28,-1569.91 -3857,-2335.9 0,0 1124.32,1799.53 2178.1,2750.33 z m 2485.5,2945.73 c 487.5,262.7 1056.4,59.5 856.8,-611.3 -84.9,-285.4 -550.1,-439 -1376.4,-774.6 -2104.9,-854.47 -3278.27,-2667.48 -3302.37,-2705.03 24.95,47.99 1476.97,2826.83 3821.97,4090.93 z m 2198.1,280 c 146.2,-311 -1111.7,-407.7 -1111.7,-407.7 -47.8,326.3 -439.4,430.1 -439.4,430.1 641.2,234 1370.3,361.7 1551.1,-22.4 z m -71.8,-1064 c -239.5,-77.3 -1388.1,-325.3 -1388.1,-325.3 0,0 431.7,297.5 393.3,756.9 0,0 775.1,100.4 1078.7,202.3 331,111 391.7,-480.4 -83.9,-633.9 z M 5136.89,4959.79 c -955.36,-109.5 -1156.02,331.36 -882.59,578.86 479.45,434.47 2777.8,421.83 3547.68,201.63 0,0 -1216.48,-614.2 -2665.09,-780.49 z m 2527.94,114.88 c 0,0 -1551.52,-1157.17 -2065.68,-1414.91 -684.65,-343.49 -1411.23,-401.28 -1411.23,-53.91 0,512.14 622.83,1030.84 1316.22,1193.23 1313.99,307.77 2252.35,739.57 2252.35,739.57 -53.23,-270.72 -91.66,-463.98 -91.66,-463.98 z m -106.8,-457.35 C 6151.87,3550.93 5847.8,1985.72 5289.52,1787.97 c -270.41,-95.68 -507.1,167.77 -422.16,449.78 197.58,654.83 1393.01,1609.01 2690.67,2522.4 z M 6783.12,3055.83 C 6489.82,2235.56 6208.65,1874.22 5964.53,2011 c -143.37,80.37 22.24,225.06 306.11,745.28 243.92,447.11 785.39,1269.54 1150.78,1470.54 -10.44,-10.11 -339.13,-334.4 -638.3,-1170.99 z M 4509.2,471.918 c 0,0 700.63,539.752 1161.36,1342.822 176.9,-146.89 465.46,-183.62 677.24,50.9 C 5695.16,737.603 5229.7,600.114 4509.2,471.918 Z M 3639.75,783.23 c 548.17,517.04 986.7,1260.62 986.7,1260.62 0,0 48.83,-651.45 663.07,-469.18 0,0 -452.68,-680.753 -1094.5,-1019.338 -381.58,-201.334 -705.87,85.745 -555.27,227.898 z m -884.94,654.16 c 267.01,165.44 1147.42,928.73 1803.57,1739.4 0,0 132.58,-33.36 282.85,-4.05 245.1,48.19 542.96,162.9 552.39,166.45 C 4558.38,2546.56 3962.35,978.312 3248.57,852.313 2693.48,754.265 2508.51,1284.92 2754.81,1437.39 Z m -511.12,288.73 c -376.01,64.69 -431.77,614.07 -185.31,750.01 233.99,129.04 585.75,215.8 973.04,381.07 791.11,337.6 989.4,563.85 989.4,563.85 0,0 78.82,-180.42 331.53,-244.26 0,0 -1298.69,-1589.65 -2108.66,-1450.67 z m -256.57,1728.79 c 767.69,680.59 2245.95,1150.78 2609.65,1157.17 0,0 -536.03,-361.03 -606.64,-869.11 -39.74,-286.87 -608.46,-525.76 -1026.26,-703.5 -381.57,-162.23 -790.43,-268.19 -996.46,-239.56 -263.14,36.4 -241.41,423.69 19.71,655 z m 598.72,1480.95 c 589.96,483.35 1115.73,545.5 1381.07,602.79 0,0 -120.79,-262.31 -3.38,-459.42 145.37,-243.91 476.76,-297.52 476.76,-297.52 0,0 -1685.48,-344.67 -2657.52,-1175.86 0,0 179.92,819.4 803.07,1330.01 z m 210.07,1154.5 c -430.76,3.69 -930.59,80.51 -1139.65,245.1 -304.92,240.07 -272.75,585.92 229.28,585.25 1515.33,-1.52 3324.29,375.32 3324.29,375.32 0,0 1476.76,-644.52 2348.2,-1205.84 0,0 -774.91,210.56 -2458.38,193.56 -674.2,-6.92 -1504.88,-200.32 -2303.74,-193.39 z M 1137.56,8237.6 c 279.14,232.13 707.71,61.31 1172.33,44.95 703.34,-25.07 1255.41,120.63 1255.41,120.63 0,0 590.27,-525.59 1349.2,-887.46 0,0 -2649.92,-584.74 -3651.6,-90.78 -265,130.52 -338.786,635.09 -125.34,812.66 z M 936.074,9582.94 c 184.296,293.8 938.846,72.1 1915.266,189.18 0,0 203.84,-655.5 558.79,-1136.11 0,0 -1151.95,-199.13 -2131.91,55.26 -415.427,107.82 -461.587,700.97 -342.146,891.67 z m -260.95,1132.76 c 226.584,250 742.756,184.1 1303.736,-58 519.88,-224.4 817.05,-637.6 817.05,-637.6 -441.71,-41.44 -1398.92,-32.51 -1831.702,129.4 -404.818,151.6 -410.884,431.9 -289.084,566.2 z m 115.903,1103.4 c 303.573,-101.9 1078.673,-202.3 1078.673,-202.3 -38.41,-459.4 393.36,-756.9 393.36,-756.9 0,0 -1148.58,248 -1388.137,325.3 -475.572,153.5 -414.924,744.9 -83.896,633.9 z m 12.13,430.1 c 180.762,384.1 909.873,256.4 1551.043,22.4 0,0 -391.51,-103.8 -439.35,-430.1 0,0 -1257.919,96.7 -1111.693,407.7 z m 2198.113,-280 c 2345,-1264.1 3796.99,-4042.94 3821.93,-4090.93 -24.1,37.55 -1197.42,1850.56 -3302.38,2705.03 -826.33,335.6 -1291.45,489.2 -1376.36,774.6 -199.63,670.8 369.27,874 856.81,611.3 z M 7664.83,6273.14 c -881.71,765.99 -2270.36,880.91 -3856.97,2335.9 -462.42,423.86 -809.29,1284.04 -1053.05,1965.16 0,0 1235.32,-200.3 2731.96,-1550.73 1053.74,-950.8 2178.06,-2750.33 2178.06,-2750.33 z m 8046.47,6518.36 c -871.6,409 -2523.5,130.7 -4700.8,-2230.3 C 9999.25,9464.67 9319,7643.91 8531.75,6953.39 c -38.4,114.54 -92.3,198.8 -139.49,256.39 74.29,42.79 149.42,143.88 168.99,203.02 29.47,89.6 35.52,221.68 -52.76,339.1 -56.4,75.13 -137.62,104.13 -196.39,116.77 49.34,116.06 187.47,359.13 570.23,751.49 353.93,362.89 526.6,677.07 610.02,903.82 83.88,229.11 -67.73,253.03 -130.73,93.16 -100.92,-256.06 -126.71,-483.49 -630.4,-1021.08 -276.97,-295.46 -436.33,-539.92 -510.28,-718.47 h -141.68 c -73.95,178.55 -233.31,423.01 -510.28,718.47 -503.69,537.59 -529.64,765.02 -630.39,1021.08 -63,159.87 -214.79,135.95 -130.73,-93.16 83.24,-226.75 256.08,-540.93 609.84,-903.82 382.76,-392.36 521.06,-635.6 570.41,-751.49 -58.94,-12.64 -137.12,-43.97 -196.57,-116.77 -116.26,-143 -81.05,-310.47 -17.54,-405.98 46.17,-69.76 107.31,-116.4 133.77,-136.14 -47.18,-57.59 -101.09,-141.85 -139.48,-256.39 -787.25,690.52 -1467.5,2511.28 -2478.77,3607.81 -2177.23,2361 -3829.19,2639.3 -4700.817,2230.3 -1378.2,-646.9 121.125,-2773.1 -67.385,-4501 C 382.165,7016.22 605.379,5373.38 3371.89,5715.51 3271.82,5699.19 1180.85,5329.57 1320.51,2806.67 1427.48,874.213 2920.24,-43.3972 4155.57,1.58823 6915.33,102.137 6747.22,3360.41 7745.71,4349.27 c 0.51,-5.37 0.85,-10.61 1.35,-16.16 20.55,-233.84 47.83,-467.15 86.09,-698.8 26.09,-158.17 57.25,-315.67 97.71,-470.84 24.26,-93.51 51.71,-186.49 85.74,-276.97 14.8,-39.24 30.15,-79.49 50.53,-116.57 17.2,-30.99 46.34,-53.4 82.9,-53.4 31,0 61.14,15.85 77.98,44.65 8.95,15.34 221.03,389.48 324.96,1571.93 0.51,5.55 0.85,10.79 1.35,16.16 C 9552.81,3360.41 9384.7,102.137 12144.5,1.58823 13379.8,-43.3972 14872.6,874.213 14979.5,2806.67 c 139.7,2522.9 -1951.3,2892.52 -2051.3,2908.84 2766.4,-342.13 2989.7,1300.71 2850.5,2574.99 -188.5,1727.9 1310.9,3854.1 -67.4,4501" /></g></g></g></svg>